<?xml version="1.0" encoding="utf-8"?>
<!-- Generator: Adobe Illustrator 16.0.0, SVG Export Plug-In . SVG Version: 6.00 Build 0)  -->
<!DOCTYPE svg PUBLIC "-//W3C//DTD SVG 1.1//EN" "http://www.w3.org/Graphics/SVG/1.1/DTD/svg11.dtd">
<svg version="1.1" id="Layer_1" xmlns="http://www.w3.org/2000/svg" xmlns:xlink="http://www.w3.org/1999/xlink" x="0px" y="0px"
	 width="120px" height="120px" viewBox="0 0 120 120" enable-background="new 0 0 120 120" xml:space="preserve">
<g>
	<path fill="#231F20" d="M93.641,26.106l-3-2.5c-0.299-0.249-0.714-0.302-1.064-0.138C89.225,23.633,89,23.986,89,24.375V25h-4v-4h1
		c0.388,0,0.741-0.037,0.905-0.389c0.165-0.352,0.111-0.673-0.137-0.971l-2.5-2.953c-0.381-0.456-1.156-0.433-1.537,0.023
		l-2.5,3.012c-0.248,0.298-0.302,0.532-0.137,0.883C80.259,20.957,80.612,21,81,21h1v4h-4v-0.625c0-0.388-0.225-0.741-0.576-0.906
		c-0.349-0.162-0.765-0.111-1.064,0.138l-3,2.5C73.132,26.296,73,26.578,73,26.875s0.132,0.578,0.359,0.768l3,2.5
		c0.184,0.153,0.411,0.232,0.641,0.232c0.144,0,0.289-0.031,0.424-0.094C77.775,30.116,78,29.763,78,29.375V28h4v4h-1
		c-0.388,0-0.741,0.412-0.905,0.763c-0.165,0.352-0.111,0.86,0.137,1.158l2.5,3.047c0.19,0.228,0.472,0.383,0.769,0.383
		s0.578-0.12,0.769-0.348l2.5-2.994c0.248-0.298,0.302-0.897,0.137-1.249C86.741,32.409,86.388,32,86,32h-1v-4h4v1.375
		c0,0.388,0.225,0.741,0.576,0.906c0.135,0.063,0.279,0.094,0.424,0.094c0.229,0,0.457-0.079,0.641-0.232l3-2.5
		C93.868,27.453,94,27.171,94,26.875S93.868,26.296,93.641,26.106z"/>
	<path fill="#231F20" d="M74.753,58.875c-0.405,0-1.379,0.14-2.436,0.469c-0.273-3.613-3.022-6.469-6.704-6.469
		c-1.486,0-2.613,0.466-3.613,1.258V38.167c4-2.303,6.799-6.72,6.799-11.792c0-7.444-6.141-13.5-13.584-13.5
		c-4.97,0-9.549,2.734-11.898,7.054c-0.391-0.036-0.791-0.054-1.164-0.054c-7.443,0-13.51,6.056-13.51,13.5
		c0,4.996,2.726,9.358,6.771,11.689l0.434,20.368c-0.808,0.439-2.036,1.242-3.604,2.666c-5.429,4.936-7.206,16.869-1.075,26.105
		c6.825,10.283,14.821,14.672,26.741,14.672c12.629,0,16.868-6.338,20.113-12.83c3.122-6.244,3.172-30.156,3.172-31.17
		C81.194,61.678,78.199,58.875,74.753,58.875z M75.325,94.703c-3.056,6.113-6.475,11.172-17.416,11.172
		c-10.936,0-17.959-3.861-24.242-13.33c-3.661-5.516-5.25-16.916,0.593-22.227c0.631-0.574,1.188-1.021,1.66-1.371l0.224,10.463
		c0.018,0.828,0.726,1.48,1.532,1.473c0.828-0.02,1.486-0.697,1.469-1.525l-0.741-34.654l-0.033-1.538l0,0l-0.209-9.76
		c0-2.649,1.648-4.469,4.006-4.469s4.007,1.913,4.008,4.616l0.335,9.36l0,0l0.114,3.189l0,0l0.558,15.575
		c0.029,0.809,0.323,1.697,1.522,1.697s1.499-0.906,1.518-1.717l0.82-34.784c0-2.28,1.896-4,4.042-4c2.426,0,3.916,2.073,3.916,4
		v9.375v3.14v20.485c0,0.828,0.34,1.5,1.168,1.5s1.252-0.672,1.252-1.5c0-2.206,2.029-4,4.235-4s4.345,1.794,4.345,4v6.5
		c0,0.828,0.672,1.5,1.5,1.5s1.5-0.672,1.5-1.5v-3.82c0-0.293,1.381-0.68,2.084-0.68c1.783,0,3.166,1.457,3.166,3
		C78.25,71.59,77.656,90.041,75.325,94.703z"/>
</g>
</svg>
