<?xml version="1.0" encoding="utf-8"?>
<!-- Generator: Adobe Illustrator 16.0.0, SVG Export Plug-In . SVG Version: 6.00 Build 0)  -->
<!DOCTYPE svg PUBLIC "-//W3C//DTD SVG 1.1//EN" "http://www.w3.org/Graphics/SVG/1.1/DTD/svg11.dtd">
<svg version="1.1" id="Layer_1" xmlns="http://www.w3.org/2000/svg" xmlns:xlink="http://www.w3.org/1999/xlink" x="0px" y="0px"
	 width="120px" height="120px" viewBox="0 0 120 120" enable-background="new 0 0 120 120" xml:space="preserve">
<path fill="#231F20" d="M81.086,58.875c-0.405,0-1.379,0.14-2.436,0.469c-0.273-3.613-3.189-6.469-6.87-6.469
	c-1.486,0-2.78,0.466-3.78,1.258V38.167c4.148-2.303,6.965-6.72,6.965-11.792c0-7.444-6.057-13.5-13.5-13.5
	c-4.97,0-9.508,2.734-11.857,7.054c-0.391-0.036-0.77-0.054-1.143-0.054c-7.443,0-13.5,6.056-13.5,13.5
	c0,4.996,2.731,9.358,6.777,11.689l0.436,20.368c-0.808,0.439-2.034,1.242-3.603,2.666c-5.429,4.936-7.206,16.869-1.075,26.105
	c6.825,10.283,14.822,14.672,26.742,14.672c12.629,0,16.868-6.338,20.113-12.83c3.122-6.244,3.172-30.156,3.172-31.17
	C87.527,61.678,84.532,58.875,81.086,58.875z M37.965,33.375c0-5.79,4.711-10.5,10.5-10.5c0.548,0,1.125,0.053,1.764,0.161
	c0.682,0.115,1.348-0.246,1.624-0.875c1.677-3.818,5.45-6.286,9.612-6.286c5.789,0,10.5,4.71,10.5,10.5
	c0,3.317-1.554,6.269-3.965,8.191v-7.691c0-3.99-3.026-7-6.749-7c-3.794,0-6.986,3.075-6.986,6.967l-0.046,2.097
	c-1.247-1.882-3.305-3.063-5.723-3.063c-3.993,0-7.004,3.225-7.004,7.532l0.17,7.939C39.404,39.421,37.965,36.567,37.965,33.375z
	 M81.658,94.703c-3.056,6.113-6.475,11.172-17.416,11.172c-10.936,0-17.959-3.861-24.242-13.33
	c-3.661-5.516-5.25-16.916,0.593-22.227c0.631-0.574,1.188-1.021,1.66-1.371l0.224,10.463c0.018,0.828,0.726,1.48,1.532,1.473
	c0.828-0.02,1.486-0.697,1.469-1.525l-0.741-34.654l-0.033-1.538l0,0l-0.209-9.76c0-2.649,1.648-4.469,4.006-4.469
	s4.007,1.913,4.008,4.616l0.335,9.36l0,0l0.114,3.189l0,0l0.558,15.575c0.029,0.809,0.323,1.697,1.522,1.697
	s1.499-0.906,1.518-1.717l0.82-34.784c0-2.28,1.729-4,3.876-4c2.425,0,3.749,2.073,3.749,4v9.375v3.14v20.485
	c0,0.828,0.507,1.5,1.335,1.5s1.335-0.672,1.335-1.5c0-2.206,1.904-4,4.11-4s4.22,1.794,4.22,4v6.5c0,0.828,0.672,1.5,1.5,1.5
	s1.5-0.672,1.5-1.5v-3.82c0-0.293,1.548-0.68,2.251-0.68c1.783,0,3.249,1.457,3.249,3C84.5,71.59,83.989,90.041,81.658,94.703z"/>
</svg>
